<svg width="388" height="158" viewBox="0 0 388 158" fill="none" xmlns="http://www.w3.org/2000/svg">
<path fill-rule="evenodd" clip-rule="evenodd" d="M140.241 108.623C146.095 99.0914 150.129 88.8759 152.114 78.5593C154.099 68.2428 153.995 58.0272 151.808 48.496C149.622 38.9647 145.395 30.3044 139.37 23.0095C133.344 15.7146 125.639 9.92795 116.692 5.97997C107.746 2.032 97.7337 1.23024e-07 87.2279 0L30.2279 6.86788e-06L5.57899e-05 157.119H206L213.557 117.839H133.839C136.151 114.876 138.291 111.798 140.241 108.623ZM79.671 39.2797C84.9238 39.2797 89.9298 40.2957 94.403 42.2697C98.8763 44.2436 102.729 47.137 105.742 50.7844C108.754 54.4319 110.868 58.762 111.961 63.5277C113.054 68.2933 113.106 73.4011 112.114 78.5593C111.122 83.7176 109.104 88.8254 106.177 93.591C103.25 98.3567 99.4707 102.687 95.0547 106.334C90.6386 109.982 85.6724 112.875 80.4396 114.849C75.2068 116.823 69.8099 117.839 64.557 117.839L47.557 117.839L62.6709 39.2797L79.671 39.2797Z" fill="white"/>
<path d="M187.228 0H259.229L251.672 39.2797H179.671C178.358 39.2797 177.009 39.5337 175.7 40.0272C174.392 40.5207 173.151 41.244 172.047 42.1559C170.943 43.0677 169.998 44.1503 169.266 45.3417C168.534 46.5331 168.03 47.81 167.782 49.0996C167.534 50.3892 167.547 51.6661 167.82 52.8575C168.093 54.0489 168.622 55.1315 169.375 56.0433C170.128 56.9552 171.091 57.6785 172.21 58.172C173.328 58.6655 174.579 58.9195 175.893 58.9195H197.893C204.459 58.9195 210.717 60.1895 216.308 62.657C221.9 65.1245 226.716 68.7411 230.482 73.3004C234.248 77.8598 236.889 83.2725 238.256 89.2295C239.623 95.1865 239.688 101.571 238.447 108.019C237.811 111.325 236.838 114.615 235.548 117.839H314.557C315.87 117.839 317.22 117.585 318.528 117.092C319.836 116.598 321.078 115.875 322.182 114.963C323.286 114.051 324.23 112.968 324.962 111.777C325.694 110.586 326.198 109.309 326.446 108.019C326.694 106.73 326.681 105.453 326.408 104.261C326.135 103.07 325.607 101.987 324.853 101.075C324.1 100.163 323.137 99.4402 322.019 98.9467C320.9 98.4532 319.649 98.1992 318.336 98.1992H296.336C289.77 98.1992 283.512 96.9292 277.921 94.4617C272.329 91.9942 267.513 88.3776 263.748 83.8182C259.982 79.2589 257.34 73.8462 255.974 67.8892C254.607 61.9321 254.542 55.5474 255.783 49.0996C257.023 42.6517 259.545 36.267 263.203 30.31C266.862 24.353 271.587 18.9403 277.107 14.3809C282.627 9.82162 288.834 6.20497 295.375 3.73749C301.916 1.27 308.662 -1.61418e-06 315.228 0H387.228L379.671 39.2797H307.671C306.358 39.2797 305.009 39.5337 303.701 40.0272C302.392 40.5207 301.151 41.244 300.047 42.1559C298.943 43.0677 297.998 44.1503 297.266 45.3417C296.535 46.5331 296.03 47.81 295.782 49.0996C295.534 50.3892 295.547 51.6661 295.82 52.8575C296.094 54.0489 296.622 55.1315 297.375 56.0433C298.128 56.9552 299.091 57.6785 300.21 58.172C301.328 58.6655 302.58 58.9195 303.893 58.9195H325.893C332.459 58.9195 338.716 60.1895 344.308 62.657C349.899 65.1245 354.715 68.7411 358.481 73.3004C362.247 77.8598 364.888 83.2725 366.255 89.2295C367.622 95.1865 367.687 101.571 366.446 108.019C365.206 114.467 362.684 120.852 359.025 126.809C355.366 132.766 350.642 138.178 345.122 142.738C339.602 147.297 333.394 150.914 326.853 153.381C320.312 155.849 313.566 157.119 307 157.119H-6.10352e-05L7.5569 117.839H186.557C187.871 117.839 189.22 117.585 190.528 117.092C191.836 116.598 193.078 115.875 194.182 114.963C195.286 114.051 196.231 112.968 196.963 111.777C197.694 110.586 198.199 109.309 198.447 108.019C198.695 106.73 198.682 105.453 198.409 104.261C198.135 103.07 197.607 101.987 196.854 101.075C196.101 100.163 195.137 99.4402 194.019 98.9467C192.901 98.4532 191.649 98.1992 190.336 98.1992H168.336C161.769 98.1992 155.512 96.9292 149.92 94.4617C144.329 91.9942 139.512 88.3776 135.747 83.8182C131.981 79.2589 129.339 73.8462 127.973 67.8892C126.606 61.9321 126.541 55.5474 127.782 49.0996C129.022 42.6517 131.544 36.267 135.202 30.31C138.861 24.353 143.586 18.9403 149.106 14.3809C154.626 9.82162 160.834 6.20497 167.375 3.73749C173.916 1.27 180.662 -1.61418e-06 187.228 0Z" fill="#3C8FDB"/>
<path d="M213.557 117.839L206 157.119H-1.65701e-05L7.55695 117.839H213.557Z" fill="url(#paint0_linear_1273_614)"/>
<mask id="mask0_1273_614" style="mask-type:alpha" maskUnits="userSpaceOnUse" x="5" y="0" width="383" height="158">
<path d="M187.228 0H259.229L251.672 39.2797H179.671C178.358 39.2797 177.009 39.5337 175.7 40.0272C174.392 40.5207 173.151 41.244 172.047 42.1559C170.943 43.0677 169.998 44.1503 169.266 45.3417C168.534 46.5331 168.03 47.81 167.782 49.0996C167.534 50.3892 167.547 51.6661 167.82 52.8575C168.093 54.0489 168.622 55.1315 169.375 56.0433C170.128 56.9552 171.091 57.6785 172.21 58.172C173.328 58.6655 174.579 58.9195 175.893 58.9195H197.893C204.459 58.9195 210.716 60.1895 216.308 62.657C221.899 65.1245 226.716 68.7411 230.482 73.3004C234.247 77.8598 236.889 83.2725 238.256 89.2295C239.623 95.1865 239.688 101.571 238.447 108.019C237.811 111.325 236.838 114.615 235.548 117.839H314.557C315.871 117.839 317.22 117.585 318.528 117.092C319.836 116.598 321.078 115.875 322.182 114.963C323.286 114.051 324.231 112.968 324.962 111.777C325.694 110.586 326.199 109.309 326.447 108.019C326.695 106.73 326.682 105.453 326.408 104.261C326.135 103.07 325.607 101.987 324.854 101.075C324.1 100.163 323.137 99.4402 322.019 98.9467C320.901 98.4532 319.649 98.1992 318.336 98.1992H296.336C289.77 98.1992 283.513 96.9292 277.921 94.4617C272.33 91.9942 267.514 88.3776 263.748 83.8182C259.982 79.2589 257.341 73.8462 255.974 67.8892C254.607 61.9321 254.542 55.5474 255.783 49.0996C257.023 42.6517 259.545 36.267 263.204 30.31C266.862 24.353 271.587 18.9403 277.107 14.3809C282.627 9.82162 288.835 6.20497 295.376 3.73749C301.917 1.27 308.663 -1.61418e-06 315.229 0H387.228L379.671 39.2797H307.672C306.358 39.2797 305.009 39.5337 303.701 40.0272C302.393 40.5207 301.151 41.244 300.047 42.1559C298.943 43.0677 297.998 44.1503 297.267 45.3417C296.535 46.5331 296.031 47.81 295.782 49.0996C295.534 50.3892 295.547 51.6661 295.821 52.8575C296.094 54.0489 296.622 55.1315 297.376 56.0433C298.129 56.9552 299.092 57.6785 300.21 58.172C301.328 58.6655 302.58 58.9195 303.893 58.9195H325.893C332.459 58.9195 338.716 60.1895 344.308 62.657C349.899 65.1245 354.715 68.7411 358.481 73.3004C362.247 77.8598 364.888 83.2725 366.255 89.2295C367.622 95.1865 367.686 101.571 366.446 108.019C365.205 114.467 362.684 120.852 359.025 126.809C355.366 132.766 350.642 138.178 345.122 142.738C339.602 147.297 333.395 150.914 326.854 153.381C320.313 155.849 313.567 157.119 307 157.119H5.49993L13.0569 117.839H186.557C187.87 117.839 189.22 117.585 190.528 117.092C191.836 116.598 193.078 115.875 194.182 114.963C195.286 114.051 196.231 112.968 196.962 111.777C197.694 110.586 198.198 109.309 198.446 108.019C198.695 106.73 198.682 105.453 198.408 104.261C198.135 103.07 197.607 101.987 196.853 101.075C196.1 100.163 195.137 99.4402 194.019 98.9467C192.9 98.4532 191.649 98.1992 190.336 98.1992H168.336C161.769 98.1992 155.512 96.9292 149.92 94.4617C144.329 91.9942 139.513 88.3776 135.747 83.8182C131.981 79.2589 129.34 73.8462 127.973 67.8892C126.606 61.9321 126.541 55.5474 127.782 49.0996C129.022 42.6517 131.544 36.267 135.203 30.31C138.862 24.353 143.586 18.9403 149.106 14.3809C154.626 9.82162 160.834 6.20497 167.375 3.73749C173.916 1.27 180.662 -1.61418e-06 187.228 0Z" fill="url(#paint1_linear_1273_614)"/>
</mask>
<g mask="url(#mask0_1273_614)">
<circle r="332.62" transform="matrix(1 0 -0.188924 0.981992 387.46 -0.369743)" fill="url(#paint2_radial_1273_614)" style="mix-blend-mode:screen"/>
</g>
<defs>
<linearGradient id="paint0_linear_1273_614" x1="75.4999" y1="157" x2="179" y2="157" gradientUnits="userSpaceOnUse">
<stop stop-color="white"/>
<stop offset="1" stop-color="white" stop-opacity="0"/>
</linearGradient>
<linearGradient id="paint1_linear_1273_614" x1="-57.9999" y1="157.119" x2="424.154" y2="249.88" gradientUnits="userSpaceOnUse">
<stop offset="0.140625" stop-color="#3C8FDB" stop-opacity="0"/>
<stop offset="0.307292" stop-color="#3C8FDB"/>
</linearGradient>
<radialGradient id="paint2_radial_1273_614" cx="0" cy="0" r="1" gradientUnits="userSpaceOnUse" gradientTransform="translate(332.62 332.62) rotate(90) scale(332.62)">
<stop stop-color="#7DF7FF"/>
<stop offset="1" stop-color="#D9D9D9" stop-opacity="0"/>
</radialGradient>
</defs>
</svg>
